<svg xmlns="http://www.w3.org/2000/svg" xmlns:xlink="http://www.w3.org/1999/xlink" version="1.1" style="fill: red;" xml:space="preserve" width="90" height="90">
<rect id="backgroundrect" width="100%" height="100%" x="0" y="0" fill="none" stroke="none" class="" style=""/><g class="currentLayer" style=""><title>Layer 1</title><g class="selected" transform="rotate(88.1608657836914 45,44.99999999999999) " filter="" opacity="1"><g id="svg_2" class="" filter="" opacity="1"><path d="M26.1,21.4 c0.1,0.1 7.6,7.8 18.9,7.8 c11.3,0 18.8,-7.7 18.9,-7.8 l0.7000000000000002,0.7000000000000002 c0,0 -3.9,-14.9 -19.6,-14.9 c-15.8,0 -19.6,14.9 -19.6,14.9 L26.1,21.4 z" id="svg_3" filter="" opacity="1"/></g><g id="svg_4" class="" filter="" opacity="1"><path d="M65.3,22.8 c-0.6000000000000002,0.6000000000000002 -8.3,8.4 -20.3,8.4 c-12,0 -19.7,-7.8 -20.3,-8.4 C19.8,28 13.5,38.1 13.5,58.4 C13.5,79.7 45,89 45,89 c0,0 31.5,-9.3 31.5,-30.6 C76.5,38.1 70.2,28 65.3,22.8 z" id="svg_5" filter="" opacity="1"/></g><g id="svg_6" class="" filter="" opacity="1"><path d="M39.3,8.7 c-0.2,-0.1 -4.2,-2.1 -4.2,-8.7 h2 c0,5.2 2.9,6.8 3.1,6.9 L39.3,8.7 z" id="svg_7" filter="" opacity="1"/></g><g id="svg_8" class="" filter="" opacity="1"><path d="M20.7,26.5 c-0.1,-1.1 -0.7000000000000002,-4.3 -2.2,-5.3 c-0.5,-0.3000000000000001 -1,-0.4 -1.6,-0.3000000000000001 c-3.8,0.9 -5.4,2.8 -5.4,2.8 L10,22.5 c0.1,-0.1 2,-2.5 6.5,-3.6 c1.2,-0.3000000000000001 2.2,-0.1 3.2,0.6000000000000002 c2.5,1.8 3,6.3 3,6.8 L20.7,26.5 z" id="svg_9" filter="" opacity="1"/></g><g id="svg_10" class="" filter="" opacity="1"><path d="M1.5999999999999996,45.1 L0,43.9 c3.1,-4.1 6.3,-6.1 9.5,-6 c4,0.1 6.4,3.6 6.4,3.7 l-1.7000000000000002,1.1 l0.8,-0.6000000000000002 l-0.8,0.6000000000000002 c0,0 -1.9,-2.7 -4.9,-2.8 C6.9,39.9 4.300000000000001,41.6 1.5999999999999996,45.1 z" id="svg_11" filter="" opacity="1"/></g><g id="svg_12" class="" filter="" opacity="1"><path d="M15.100000000000001,81.7 c-0.4,0 -3.6,-0.2 -5.3,-7.2 c-0.5,-1.9 -0.2,-3.4 0.9,-4.3 c2.2,-1.9 6.9,-0.2 7.4,0 l-0.7000000000000002,1.9 c-1.7000000000000002,-0.6000000000000002 -4.4,-1.2 -5.3,-0.4 c-0.5,0.5 -0.4,1.5 -0.2,2.3 c1.3,5.3 3.3,5.6 3.3,5.6 V81.7 z" id="svg_13" filter="" opacity="1"/></g><g id="svg_14" class="" filter="" opacity="1"><g id="svg_15" filter="" opacity="1"><path d="M45,90 c-0.1,0 -0.2,0 -0.3000000000000001,0 c-0.1,0 -8,-2.4 -16,-7.4 c-10.6,-6.7 -16.2,-15.1 -16.2,-24.1 c0,-16.3 4,-28.7 12,-36.9 c0.7000000000000002,-2.1 5.4,-15.4 20.5,-15.4 c15.1,0 19.8,13.3 20.5,15.4 c8,8.2 12,20.6 12,36.9 c0,21.7 -30.9,31.1 -32.2,31.5 C45.2,90 45.1,90 45,90 zM45,8.2 c-14.8,0 -18.6,14 -18.6,14.1 c0,0.2 -0.1,0.3000000000000001 -0.3000000000000001,0.5 c-7.7,7.8 -11.6,19.8 -11.6,35.7 c0,19.2 27.4,28.5 30.5,29.5 c3.1,-1 30.5,-10.3 30.5,-29.5 c0,-15.9 -3.9,-27.9 -11.6,-35.7 c-0.1,-0.1 -0.2,-0.3000000000000001 -0.3000000000000001,-0.5 C63.5,21.7 59.8,8.2 45,8.2 z" id="svg_16" filter="" opacity="1"/></g></g><g id="svg_17" class="" filter="" opacity="1"><path d="M50.7,8.7 l-0.9,-1.8 l0.4,0.9 l-0.4,-0.9 c0.1,-0.1 3.1,-1.6 3.1,-6.9 h2 C54.8,6.6 50.8,8.6 50.7,8.7 z" id="svg_18" filter="" opacity="1"/></g><g id="svg_19" class="" filter="" opacity="1"><path d="M69.3,26.5 l-2,-0.2 c0.1,-0.5 0.6000000000000002,-5 3,-6.8 c0.9,-0.7000000000000002 2,-0.9 3.2,-0.6000000000000002 c4.5,1 6.4,3.5 6.5,3.6 l-1.6,1.2 c0,0 -1.6,-2 -5.4,-2.8 c-0.6000000000000002,-0.1 -1.1,0 -1.6,0.3000000000000001 C70,22.3 69.4,25.4 69.3,26.5 z" id="svg_20" filter="" opacity="1"/></g><g id="svg_21" class="" filter="" opacity="1"><path d="M88.4,45.1 c-2.7,-3.5 -5.3,-5.3 -7.8,-5.2 c-3,0.1 -4.8,2.8 -4.8,2.8 l-1.7000000000000002,-1.1 c0.1,-0.1 2.5,-3.6 6.4,-3.7 c3.2,-0.1 6.4,1.9 9.5,6 L88.4,45.1 z" id="svg_22" filter="" opacity="1"/></g><g id="svg_23" class="" filter="" opacity="1"><path d="M74.9,81.7 v-2 c0,0 2,-0.3000000000000001 3.3,-5.6 c0.2,-0.8 0.3000000000000001,-1.8 -0.2,-2.3 c-1,-0.9 -4,-0.1 -5.3,0.4 l-0.7000000000000002,-1.9 c0.5,-0.2 5.2,-1.9 7.4,0 c1,0.9 1.3,2.3 0.9,4.3 C78.5,81.5 75.3,81.7 74.9,81.7 z" id="svg_24" filter="" opacity="1"/></g></g></g><defs><filter id="f002" xmlns:inkscape="http://www.inkscape.org/namespaces/inkscape" inkscape:label="Smart jelly" inkscape:menu="Bevels" inkscape:menu-tooltip="Same as Matte jelly but with more controls" height="1" width="1" y="0" x="0" color-interpolation-filters="sRGB">
            <feBlend result="result3" mode="normal" in2="result91"/>
            <feComposite result="result4" operator="arithmetic" k2="1" in2="result3"/>
            <feColorMatrix id="feColorMatrix3006" in="result4" result="result0" values="1 0 0 0 0 0 1 0 0 0 0 0 1 0 0 0 0 0 0.85 0 "/>
            <feGaussianBlur stdDeviation="7" in="SourceAlpha"/>
            <feSpecularLighting result="result1" specularExponent="25" specularConstant="1" surfaceScale="5">
                <feDistantLight azimuth="225" elevation="60"/>
            </feSpecularLighting>
            <feComposite in2="result0" k1=".5" k2="1" operator="arithmetic" k3=".5"/>
            <feComposite result="result2" in2="result0" operator="atop"/>
            <feComposite operator="in" in2="SourceGraphic"/>
        </filter></defs></svg>